<svg id="Layer_1" data-name="Layer 1" xmlns="http://www.w3.org/2000/svg" viewBox="0 0 127 144"><defs><style>.cls-1{fill:#006;}.cls-2,.cls-3{fill:#b0c74d;}.cls-2{fill-rule:evenodd;}.cls-4{fill:none;}</style></defs><title>logo</title><path class="cls-1" d="M30.63,113.06a5.35,5.35,0,0,1-1.93-.86,3.93,3.93,0,0,1-1.26-1.49,5,5,0,0,1-.44-2.15,4.46,4.46,0,0,1,.55-2.27,4,4,0,0,1,1.52-1.48,10.14,10.14,0,0,1,5.1-1.07,20.13,20.13,0,0,1,2.17.11,9.4,9.4,0,0,1,1.91.39v-1.82a1.62,1.62,0,0,0-.24-.89,1.84,1.84,0,0,0-.74-.62,7.11,7.11,0,0,0-3-.47,7.19,7.19,0,0,0-3,.47,1.8,1.8,0,0,0-.73.62,1.55,1.55,0,0,0-.25.89H27.16a4.46,4.46,0,0,1,.55-2.27,4.21,4.21,0,0,1,1.51-1.48,10.26,10.26,0,0,1,5.1-1,15,15,0,0,1,2.82.24,7.46,7.46,0,0,1,2.27.81,4.24,4.24,0,0,1,1.52,1.48,4.47,4.47,0,0,1,.56,2.27v10.72H38.26v-1.89a4.25,4.25,0,0,1-.84.77,8,8,0,0,1-2.67,1.14,7.59,7.59,0,0,1-1.62.18A10.06,10.06,0,0,1,30.63,113.06Zm5.84-6.39a20,20,0,0,0-2.3-.1,6.94,6.94,0,0,0-3,.48,1.75,1.75,0,0,0-.74.61,1.64,1.64,0,0,0-.25.9,1.71,1.71,0,0,0,.42,1.19,2,2,0,0,0,.94.58,5,5,0,0,0,1.06.2h.74a6.38,6.38,0,0,0,1.57-.22,6.65,6.65,0,0,0,1.59-.66,3.93,3.93,0,0,0,1.22-1.08,2.43,2.43,0,0,0,.49-1.47A6.72,6.72,0,0,0,36.47,106.67Z"/><path class="cls-1" d="M44.2,97.77h3.23V110.3h7.76v2.82h-11Z"/><path class="cls-1" d="M60.44,107.58v5.54H57.21V97.77H64a15.26,15.26,0,0,1,2.79.23,6.75,6.75,0,0,1,2.21.77,4,4,0,0,1,1.46,1.51,5.17,5.17,0,0,1,.52,2.39,5.23,5.23,0,0,1-.52,2.41A3.93,3.93,0,0,1,69,106.57a6.53,6.53,0,0,1-2.21.79,15.32,15.32,0,0,1-2.79.22Zm0-7v4.16H64a11.26,11.26,0,0,0,1.69-.1,3.33,3.33,0,0,0,1.17-.33,1.57,1.57,0,0,0,.68-.64,2.15,2.15,0,0,0,.21-1,2.19,2.19,0,0,0-.21-1,1.55,1.55,0,0,0-.68-.63,3.54,3.54,0,0,0-1.17-.34A13,13,0,0,0,64,100.6Z"/><path class="cls-1" d="M84.72,97.77h3.22v15.35H84.72v-5.54h-8v5.54H73.47V97.77H76.7v7h8Z"/><path class="cls-1" d="M94.14,113.06a5.43,5.43,0,0,1-1.93-.86A3.93,3.93,0,0,1,91,110.71a5,5,0,0,1-.44-2.15,4.46,4.46,0,0,1,.55-2.27,4.08,4.08,0,0,1,1.52-1.48,10.14,10.14,0,0,1,5.1-1.07,20.13,20.13,0,0,1,2.17.11,9.51,9.51,0,0,1,1.92.39v-1.82a1.63,1.63,0,0,0-.25-.89,1.77,1.77,0,0,0-.74-.62,7.11,7.11,0,0,0-3-.47,7.19,7.19,0,0,0-3,.47,1.8,1.8,0,0,0-.73.62,1.63,1.63,0,0,0-.25.89H90.67a4.46,4.46,0,0,1,.55-2.27,4.16,4.16,0,0,1,1.52-1.48,10.24,10.24,0,0,1,5.09-1,15,15,0,0,1,2.82.24,7.46,7.46,0,0,1,2.27.81,4.24,4.24,0,0,1,1.52,1.48,4.47,4.47,0,0,1,.56,2.27v10.72h-3.23v-1.89a4.25,4.25,0,0,1-.84.77,7.72,7.72,0,0,1-4.29,1.32A10.06,10.06,0,0,1,94.14,113.06Zm5.84-6.39a20,20,0,0,0-2.3-.1,6.94,6.94,0,0,0-3,.48,1.75,1.75,0,0,0-.74.61,1.63,1.63,0,0,0-.24.9,1.71,1.71,0,0,0,.41,1.19,2,2,0,0,0,.94.58,5.13,5.13,0,0,0,1.06.2h.74a6.38,6.38,0,0,0,1.57-.22,6.65,6.65,0,0,0,1.59-.66,3.93,3.93,0,0,0,1.22-1.08,2.44,2.44,0,0,0,.5-1.47A6.8,6.8,0,0,0,100,106.67Z"/><path class="cls-1" d="M30.74,123.49v3.74H28.56V116.86h4.55A10.49,10.49,0,0,1,35,117a4.82,4.82,0,0,1,1.49.52,2.59,2.59,0,0,1,1,1,3.4,3.4,0,0,1,.35,1.62,3.35,3.35,0,0,1-.35,1.62,2.59,2.59,0,0,1-1,1,4.58,4.58,0,0,1-1.49.53,10.49,10.49,0,0,1-1.89.15Zm0-4.72v2.81h2.37a7.22,7.22,0,0,0,1.14-.07,2.19,2.19,0,0,0,.79-.22,1.07,1.07,0,0,0,.46-.43,1.41,1.41,0,0,0,.14-.69,1.4,1.4,0,0,0-.14-.68,1,1,0,0,0-.46-.43,2.4,2.4,0,0,0-.79-.23,8.9,8.9,0,0,0-1.14-.06Z"/><path class="cls-1" d="M40.23,126a5.41,5.41,0,0,1-1.32-4,8.23,8.23,0,0,1,.29-2.29,4,4,0,0,1,.9-1.66,3.71,3.71,0,0,1,1.57-1,6.78,6.78,0,0,1,2.29-.34,6.68,6.68,0,0,1,2.28.34,3.63,3.63,0,0,1,1.53,1,4.36,4.36,0,0,1,.86,1.66A8.62,8.62,0,0,1,48.9,122v.08a.25.25,0,0,0,0,.08.63.63,0,0,1,0,.16.15.15,0,0,1-.14.08H41.1a5.09,5.09,0,0,0,.22,1.3,2.3,2.3,0,0,0,.55.94,2.26,2.26,0,0,0,1,.57,4.76,4.76,0,0,0,1.4.18,5.8,5.8,0,0,0,1-.08,3,3,0,0,0,.84-.3,1.54,1.54,0,0,0,.79-1.4H49a3.45,3.45,0,0,1-.46,1.78A3.5,3.5,0,0,1,46.66,127a6.93,6.93,0,0,1-2.44.4A5.38,5.38,0,0,1,40.23,126Zm6.5-5.46a4.08,4.08,0,0,0-.26-.83,1.76,1.76,0,0,0-.48-.59,2,2,0,0,0-.8-.35,5.32,5.32,0,0,0-1.23-.12,4.72,4.72,0,0,0-1.13.12,2.34,2.34,0,0,0-.8.35,1.85,1.85,0,0,0-.52.59,2.7,2.7,0,0,0-.29.83Z"/><path class="cls-1" d="M54.09,116.91v7.19a1.8,1.8,0,0,0,.11.67.88.88,0,0,0,.32.41,1.33,1.33,0,0,0,.54.21,3.73,3.73,0,0,0,.74.06,3.84,3.84,0,0,0,.75-.06,1.33,1.33,0,0,0,.54-.21.88.88,0,0,0,.32-.41,1.8,1.8,0,0,0,.11-.67H59.7a3.71,3.71,0,0,1-.27,1.49,2.34,2.34,0,0,1-.76,1,4.58,4.58,0,0,1-2.87.76,6.68,6.68,0,0,1-1.65-.19,3.21,3.21,0,0,1-1.22-.57,2.42,2.42,0,0,1-.76-1,3.9,3.9,0,0,1-.26-1.49v-7.19Z"/><path class="cls-1" d="M62,126a5.33,5.33,0,0,1,4-9.27,7.08,7.08,0,0,1,1.24.1,5.27,5.27,0,0,1,1.2.3,3.79,3.79,0,0,1,1.07.59,3.29,3.29,0,0,1,.82.93,3.45,3.45,0,0,1,.46,1.78H68.61a1.54,1.54,0,0,0-.79-1.4,3.6,3.6,0,0,0-1.82-.38,4.59,4.59,0,0,0-1.48.21,2.17,2.17,0,0,0-1,.64,2.58,2.58,0,0,0-.53,1.06,7,7,0,0,0,0,3,2.58,2.58,0,0,0,.53,1.06,2.17,2.17,0,0,0,1,.64,4.59,4.59,0,0,0,1.48.21,6,6,0,0,0,1-.08,3,3,0,0,0,.83-.3,1.53,1.53,0,0,0,.57-.56,1.55,1.55,0,0,0,.22-.84h2.18a3.39,3.39,0,0,1-.46,1.77A3.56,3.56,0,0,1,68.44,127a6.94,6.94,0,0,1-2.44.39A5.36,5.36,0,0,1,62,126Z"/><path class="cls-1" d="M74.47,127.19a3.78,3.78,0,0,1-1.3-.58,2.66,2.66,0,0,1-.85-1,3.34,3.34,0,0,1-.3-1.46,3,3,0,0,1,.37-1.53,2.83,2.83,0,0,1,1-1,6.83,6.83,0,0,1,3.44-.72c.55,0,1,0,1.47.07a6.56,6.56,0,0,1,1.3.27V120a1.08,1.08,0,0,0-.17-.6A1.24,1.24,0,0,0,79,119a4.77,4.77,0,0,0-2-.32,4.82,4.82,0,0,0-2,.32,1.24,1.24,0,0,0-.5.42,1.08,1.08,0,0,0-.16.6H72.13a3,3,0,0,1,.37-1.53,2.68,2.68,0,0,1,1-1,6.8,6.8,0,0,1,3.44-.72,9.86,9.86,0,0,1,1.9.17,4.8,4.8,0,0,1,1.54.55,2.72,2.72,0,0,1,1,1,2.9,2.9,0,0,1,.38,1.53v7.24H79.63V126a2.92,2.92,0,0,1-.57.51,4.47,4.47,0,0,1-.81.45,5.75,5.75,0,0,1-1,.33,5.22,5.22,0,0,1-1.1.12A7.21,7.21,0,0,1,74.47,127.19Zm4-4.32a12.79,12.79,0,0,0-1.56-.07,4.85,4.85,0,0,0-2,.32,1.2,1.2,0,0,0-.49.42,1.08,1.08,0,0,0-.17.6,1.16,1.16,0,0,0,.28.81,1.41,1.41,0,0,0,.63.39,3.54,3.54,0,0,0,.72.14h.5a4.48,4.48,0,0,0,1.06-.14,4.54,4.54,0,0,0,1.08-.45,2.56,2.56,0,0,0,.82-.73,1.59,1.59,0,0,0,.34-1A4.56,4.56,0,0,0,78.42,122.87Z"/><path class="cls-1" d="M90.86,123.14l2.28,4H90.8l-2.07-3.61H85.82v3.74H83.65V116.86H88.2a10.3,10.3,0,0,1,1.88.15,4.64,4.64,0,0,1,1.49.52,2.55,2.55,0,0,1,1,1,3.52,3.52,0,0,1,.35,1.62,3.46,3.46,0,0,1-.35,1.62,2.55,2.55,0,0,1-1,1A5.21,5.21,0,0,1,90.86,123.14Zm-5-4.37v2.81H88.2a7.22,7.22,0,0,0,1.14-.07,2.19,2.19,0,0,0,.79-.22,1.07,1.07,0,0,0,.46-.43,1.75,1.75,0,0,0,0-1.37,1,1,0,0,0-.46-.43,2.4,2.4,0,0,0-.79-.23,8.9,8.9,0,0,0-1.14-.06Z"/><path class="cls-1" d="M95.4,126a5.41,5.41,0,0,1-1.32-4,8.25,8.25,0,0,1,.28-2.29,4.28,4.28,0,0,1,.9-1.66,3.77,3.77,0,0,1,1.57-1,6.86,6.86,0,0,1,2.29-.34,6.68,6.68,0,0,1,2.28.34,3.51,3.51,0,0,1,1.53,1,4.1,4.1,0,0,1,.86,1.66,8.2,8.2,0,0,1,.28,2.29v.08a.25.25,0,0,0,0,.08.57.57,0,0,1,0,.16.13.13,0,0,1-.13.08H96.27a4.71,4.71,0,0,0,.21,1.3,2.43,2.43,0,0,0,.56.94,2.29,2.29,0,0,0,.94.57,4.81,4.81,0,0,0,1.4.18,6,6,0,0,0,1-.08,2.88,2.88,0,0,0,.83-.3,1.54,1.54,0,0,0,.58-.55,1.58,1.58,0,0,0,.22-.85h2.18a3.45,3.45,0,0,1-.46,1.78,3.58,3.58,0,0,1-1.89,1.52,7,7,0,0,1-2.45.4A5.34,5.34,0,0,1,95.4,126Zm6.5-5.46a3.52,3.52,0,0,0-.27-.83,1.73,1.73,0,0,0-.47-.59,2,2,0,0,0-.8-.35,5.48,5.48,0,0,0-1.24-.12,4.63,4.63,0,0,0-1.12.12,2.34,2.34,0,0,0-.8.35,2,2,0,0,0-.53.59,3.35,3.35,0,0,0-.29.83Z"/><rect class="cls-1" x="49.7" y="118.69" width="9.78" height="1.78"/><path class="cls-2" d="M51.44,12.24C59,10.72,63.15,20.55,63.15,27.51c0,5.76-2.55,12.31-8.89,11.27a9.73,9.73,0,0,1-3.71-1.93C45,32.17,43,18.56,48.62,13.57A6.23,6.23,0,0,1,51.44,12.24Z"/><path class="cls-2" d="M76,12.24a7.85,7.85,0,0,1,3.26.14c8.46,2.71,6.31,19.4.3,24.47a7.71,7.71,0,0,1-6.82,1.78c-4-1.12-5.76-6.69-5.78-11,0-6.71,2.87-12.23,6.52-14.53A7,7,0,0,1,76,12.24Z"/><path class="cls-2" d="M34.14,31.22a10,10,0,0,1,7.11,3.11c4.45,4.41,7.67,17.08-.44,19.72a8.23,8.23,0,0,1-5-.44c-4.09-1.63-8-7.21-8.46-12.31S29.13,31.41,34.14,31.22Z"/><path class="cls-2" d="M95.58,31.22a6.71,6.71,0,0,1,6.08,3.26c4,7-1.77,17.59-7.86,19.42a7.17,7.17,0,0,1-8.45-3.26c-2.82-5.38,0-12.8,3.56-16.31A10.26,10.26,0,0,1,95.58,31.22Z"/><path class="cls-3" d="M83.79,63.28a56.61,56.61,0,0,0-.38-6.92,15.35,15.35,0,0,0-5-9.76q-4.89-4.35-13.35-3.73a19.63,19.63,0,0,0-11.52,4.35A13.89,13.89,0,0,0,48.25,58.4a33.93,33.93,0,0,1,7.59-.8,43.17,43.17,0,0,1,9.32,1q0-4.53,3.65-4.53,3.36,0,4.71,9c-2.43-1.42-5.67-2.13-9.74-2.13a44,44,0,0,0-4.5-.24C46,60.65,35.16,66.6,35.16,73.94S46,87.23,59.28,87.23c12,0,22-4.84,23.81-11.17A11.1,11.1,0,0,0,83.5,75C83.93,73.76,83.79,64.59,83.79,63.28ZM66.6,67.63a6.36,6.36,0,0,1,4.27,1.16,3.57,3.57,0,0,1,1.59,2.84,3.79,3.79,0,0,1-2,3.37,8.19,8.19,0,0,1-3.94,1.07,7.8,7.8,0,0,1-4.13-.94,3.52,3.52,0,0,1-2-2.7A4,4,0,0,1,62,69.32,6.87,6.87,0,0,1,66.6,67.63Z"/><rect class="cls-4" width="127" height="144"/></svg>